<?xml version="1.0" encoding="utf-8"?>
<!-- Generator: Adobe Illustrator 24.1.1, SVG Export Plug-In . SVG Version: 6.00 Build 0)  -->
<svg version="1.1" id="Layer_1" xmlns="http://www.w3.org/2000/svg" xmlns:xlink="http://www.w3.org/1999/xlink" x="0px" y="0px"
	 viewBox="0 0 511 511" style="enable-background:new 0 0 511 511;" xml:space="preserve">
<style type="text/css">
	.st0{fill:#8B0000;}
</style>
<path class="st0" d="M255.4,244.6c33.6,0,62.7-12,86.5-35.8s35.8-52.9,35.8-86.5s-12.1-62.7-35.8-86.5S289,0,255.4,0
	s-62.7,12.1-86.5,35.8S133,88.7,133,122.3s12.1,62.7,35.9,86.5S221.8,244.6,255.4,244.6z M189.9,56.9c18.2-18.2,39.7-27.1,65.4-27.1
	s47.2,8.9,65.4,27.1s27.1,39.7,27.1,65.4s-8.9,47.2-27.1,65.4s-39.7,27.1-65.4,27.1s-47.2-8.9-65.4-27.1s-27.1-39.6-27.1-65.4
	S171.7,75.1,189.9,56.9z"/>
<path class="st0" d="M471.1,392.7c-0.8-10.8-2.2-21.6-4.1-32.4c-1.9-11-4.6-21.9-8-32.5c-3.4-10.5-7.9-20.7-13.4-30.3
	c-5.4-9.7-12.2-18.5-20.2-26.3c-8.4-7.9-18.2-14.1-29-18.2c-11.8-4.5-24.4-6.8-37-6.7c-5.2,0-10.3,2.1-20,8.5
	c-6,3.9-13,8.4-20.9,13.5c-6.7,4.3-15.8,8.3-27,11.9c-21.5,7.1-44.6,7.1-66.1,0c-11.2-3.6-20.3-7.6-27-11.9
	c-7.8-5-14.8-9.5-20.9-13.5c-9.8-6.4-14.8-8.5-20-8.5c-12.6-0.1-25.2,2.1-37,6.7c-10.8,4.1-20.6,10.3-29,18.2
	c-7.9,7.7-14.7,16.6-20.1,26.3c-5.5,9.6-10,19.8-13.4,30.3c-3.4,10.7-6.1,21.5-8,32.5c-2,10.7-3.3,21.5-4.1,32.4
	c-0.7,9.8-1,20-1,30.2c0,26.7,8.5,48.4,25.3,64.3C86.8,503,108.7,511,135.3,511h246.5c26.6,0,48.5-8,65.1-23.7
	c16.8-16,25.3-37.6,25.3-64.3C472.2,412.6,471.8,402.5,471.1,392.7z M426.2,465.5c-10.9,10.4-25.5,15.5-44.4,15.5H135.3
	c-18.9,0-33.4-5.1-44.4-15.5C80.2,455.3,75,441.4,75,423c0-9.6,0.3-19.1,0.9-28.2c0.7-9.8,2-19.5,3.8-29.1c1.7-9.7,4-19.3,7-28.7
	c2.8-8.6,6.4-16.8,10.9-24.7c4-7.2,9-13.7,14.8-19.4c5.6-5.2,12.1-9.3,19.3-12c7.5-2.9,15.5-4.4,23.6-4.6c1,0.6,2.9,1.6,5.9,3.6
	c6.2,4,13.3,8.6,21.1,13.6c8.9,5.6,20.3,10.8,33.9,15.1c27.5,9.1,57.1,9.1,84.5,0c13.6-4.4,25.1-9.5,33.9-15.2
	c8-5.1,15-9.6,21.1-13.6c3-2,4.9-3,6-3.6c8.1,0.1,16.1,1.7,23.6,4.6c7.1,2.7,13.7,6.8,19.3,12c5.9,5.7,10.8,12.3,14.8,19.4
	c4.5,7.8,8.1,16.1,10.8,24.6c3,9.4,5.3,19,7,28.7c1.8,9.6,3,19.4,3.8,29.1l0,0c0.6,9.1,1,18.5,1,28.1
	C442.2,441.4,437,455.3,426.2,465.5L426.2,465.5z"/>
</svg>
