<?xml version="1.0" encoding="utf-8"?>
<!-- Generator: Adobe Illustrator 24.1.1, SVG Export Plug-In . SVG Version: 6.00 Build 0)  -->
<svg version="1.1" id="Layer_1" xmlns="http://www.w3.org/2000/svg" xmlns:xlink="http://www.w3.org/1999/xlink" x="0px" y="0px"
	 viewBox="0 0 511 511" style="enable-background:new 0 0 511 511;" xml:space="preserve">
<style type="text/css">
	.st0{fill:#8B0000;}
</style>
<path class="st0" d="M498.2,221.3L498.2,221.3L289.7,12.8c-18.3-18.4-48.1-18.4-66.5-0.1c0,0,0,0-0.1,0.1L14.9,221.1
	c-0.1,0.1-0.1,0.1-0.2,0.2c-18.3,18.4-18.3,48.1,0.1,66.5c8.3,8.3,19.5,13.2,31.3,13.7c0.5,0,1,0.1,1.5,0.1h8.3V455
	c0.1,30.4,24.7,55,55,55h81.6c8.3,0,15-6.7,15-15V374.8c0-13.9,11.3-25.1,25.1-25.1h48.1c13.9,0,25.1,11.3,25.1,25.1V495
	c0,8.3,6.7,15,15,15h81.6c30.4-0.1,54.9-24.6,55-55V301.6h7.7c26,0.1,47.1-20.9,47.1-46.9C512.1,242.1,507.1,230.1,498.2,221.3
	L498.2,221.3z M477,266.6c-3.2,3.2-7.6,5-12.1,5h-22.6c-8.3,0-15,6.7-15,15V455c0,13.9-11.3,25.1-25.1,25.1h-66.6V374.8
	c0-30.4-24.7-55-55.1-55.1h-48.1c-30.4,0-55,24.7-55.1,55.1v105.3h-66.6c-13.8,0-25.1-11.2-25.1-25.1V286.6c0-8.3-6.7-15-15-15H48.4
	c-0.2,0-0.5,0-0.7,0c-9.4-0.2-16.9-7.9-16.8-17.4c0.1-4.4,1.9-8.7,5-11.8l0,0L244.4,34c6.7-6.7,17.5-6.7,24.2,0l0,0L477,242.3
	l0.1,0.1C483.7,249.1,483.7,259.9,477,266.6z"/>
</svg>
