<?xml version="1.0" encoding="utf-8"?>
<!-- Generator: Adobe Illustrator 24.1.1, SVG Export Plug-In . SVG Version: 6.00 Build 0)  -->
<svg version="1.1" id="Layer_1" xmlns="http://www.w3.org/2000/svg" xmlns:xlink="http://www.w3.org/1999/xlink" x="0px" y="0px"
	 viewBox="0 0 591 591" style="enable-background:new 0 0 591 591;" xml:space="preserve">
<style type="text/css">
	.st0{fill:#8B0000;}
</style>
<path class="st0" d="M580.4,148.7L299.2,0.9c-2.3-1.2-5.2-1.2-7.5,0L10.5,148.6c-3.9,2.1-5.4,6.9-3.4,10.9c1.9,3.6,6.2,5.2,9.9,3.8
	c-0.2,1.2-0.3,2.4-0.4,3.5V191c0,10,6.3,19,15.6,22.5v35.8c0,12,9.5,21.8,21.4,22.4v206.6c-12,0.6-21.4,10.4-21.4,22.4v35.7
	c-9.4,3.6-15.6,12.6-15.6,22.7v23.8c0,4.4,3.6,8,8,8h541.6c4.4,0,8-3.6,8-8V559c0-10.1-6.2-19.1-15.6-22.7v-35.9
	c0-12-9.5-21.8-21.4-22.4V271.7c12-0.6,21.4-10.4,21.4-22.4v-35.8c9.4-3.5,15.6-12.5,15.6-22.5v-24.1c0-1.2-0.2-2.4-0.4-3.5
	c4,1.8,8.8,0,10.5-4.1C586.3,155.3,584.5,150.5,580.4,148.7z M254.6,478.3c-12,0.6-21.4,10.4-21.4,22.4v34.2h-76.2v-34.2
	c0-12-9.5-21.8-21.4-22.4V271.7c12-0.6,21.4-10.4,21.4-22.4v-34.2h76.1v34.2c0,12,9.4,21.9,21.4,22.4l0.1,0.1V478.3z M434.1,534.8
	h-76.2v-34.2c0-12-9.5-21.8-21.4-22.4V271.7c12-0.6,21.4-10.4,21.4-22.4v-34.2H434v34.2c0,12,9.4,21.9,21.4,22.4l0.1,0.1v206.6
	c-12,0.6-21.4,10.4-21.4,22.4V534.8z"/>
</svg>
