<?xml version="1.0" encoding="utf-8"?>
<!-- Generator: Adobe Illustrator 24.1.1, SVG Export Plug-In . SVG Version: 6.00 Build 0)  -->
<svg version="1.1" id="Layer_1" xmlns="http://www.w3.org/2000/svg" xmlns:xlink="http://www.w3.org/1999/xlink" x="0px" y="0px"
	 viewBox="0 0 511 511" style="enable-background:new 0 0 511 511;" xml:space="preserve">
<style type="text/css">
	.st0{fill:#8B0000;}
</style>
<g>
	<path class="st0" d="M384.4,510.4H126.6c-29.1,0-52.7-23.6-52.7-52.7V55.3c0-29.1,23.6-52.7,52.7-52.7h257.8
		c29.1,0,52.7,23.6,52.7,52.7v402.4C437.1,486.8,413.4,510.4,384.4,510.4z M126.6,33c-12.3,0-22.3,10-22.3,22.3v402.4
		c0,12.3,10,22.3,22.3,22.3h257.8c12.3,0,22.3-10,22.3-22.3V55.3c0-12.3-10-22.3-22.3-22.3H126.6z"/>
</g>
</svg>
